{"title":"Raaz Reboot (2016) 720p DesiSCR Rip AC3 5.1 -DDR","uid":15847309,"size":2672326624,"categoryP":"video","categoryS":"hd___movies","magnet":"?xt=urn:btih:dd83b5084453709f21e123d59606ae450bdf1ffa&amp;dn=Raaz+Reboot+%282016%29+720p+DesiSCR+Rip+AC3+5.1+-DDR&amp;tr=udp%3A%2F%2Ftracker.leechers-paradise.org%3A6969&amp;tr=udp%3A%2F%2Fzer0day.ch%3A1337&amp;tr=udp%3A%2F%2Fopen.demonii.com%3A1337&amp;tr=udp%3A%2F%2Ftracker.coppersurfer.tk%3A6969&amp;tr=udp%3A%2F%2Fexodus.desync.com%3A6969","seeders":202,"leechers":178,"uploader":"SaM","files":3,"time":1474117415,"description":"720p x264 DesiSCR Rip\r\n\r\nHindi AC3 5.1 upmix Audio\r\n\r\n\r\n\r\nSCREENSHOTS\r\n \nhttp://extraimago.com/image/whNO \nhttp://extraimago.com/image/whNE \nhttp://extraimago.com/image/whN1 \nhttp://extraimago.com/image/whNc \nhttp://extraimago.com/image/whN7 \nhttp://extraimago.com/image/whNs \nhttp://extraimago.com/image/whNn \nhttp://extraimago.com/image/whNj \nhttp://extraimago.com/image/whNT \nhttp://extraimago.com/image/whNN \nhttp://extraimago.com/image/whN2 \nhttp://extraimago.com/image/whNw \nhttp://extraimago.com/image/whNa \nhttp://extraimago.com/image/whN8\r\n\r\nSpecs:\r\n\r\nSource: DesiSCR @ ICTV\r\n\r\nFormat : Matroska\r\nFile size : 2.46 GiB\r\nDuration : 2 h 7 min\r\nOverall bit rate : 2 759 kb/s\r\n\r\nVideo\r\nID : 1\r\nFormat : AVC\r\nFormat/Info : Advanced Video Codec\r\nFormat profile :   \r\nFormat settings, CABAC : Yes\r\nFormat settings, ReFrames : 12 frames\r\nCodec ID : V_MPEG4/ISO/AVC\r\nDuration : 2 h 7 min\r\nBit rate : 2 501 kb/s\r\nWidth : 1 280 pixels\r\nHeight : 544 pixels\r\nDisplay aspect ratio : 2.35:1\r\nFrame rate mode : Constant\r\nFrame rate : 25.000 FPS\r\nColor space : YUV\r\nChroma subsampling : 4:2:0\r\nBit depth : 8 bits\r\nScan type : Progressive\r\nBits/(Pixel*Frame) : 0.144\r\nStream size : 2.23 GiB (91%)\r\nDefault : Yes\r\nForced : No\r\nColor range : Limited\r\nColor primaries : BT.601 NTSC\r\nTransfer characteristics : BT.470 System B, BT.470 System G\r\nMatrix coefficients : BT.601\r\n\r\nAudio\r\nID : 2\r\nFormat : AC-3\r\nFormat/Info : Audio Coding 3\r\nMode extension : CM (complete main)\r\nFormat settings, Endianness : Big\r\nCodec ID : A_AC3\r\nDuration : 2 h 7 min\r\nBit rate mode : Constant\r\nBit rate : 256 kb/s\r\nChannel(s) : 6 channels\r\nChannel positions : Front: L C R, Side: L R, LFE\r\nSampling rate : 48.0 kHz\r\nFrame rate : 31.250 FPS (1536 spf)\r\nCompression mode : Lossy\r\nStream size : 234 MiB (9%)\r\nLanguage : Hindi\r\nDefault : Yes\r\nForced : No\r\n\r\nSAMPLE Included","torrent":{"xt":"urn:btih:dd83b5084453709f21e123d59606ae450bdf1ffa","amp;dn":"Raaz+Reboot+%282016%29+720p+DesiSCR+Rip+AC3+5.1+-DDR","amp;tr":["udp%3A%2F%2Ftracker.leechers-paradise.org%3A6969","udp%3A%2F%2Fzer0day.ch%3A1337","udp%3A%2F%2Fopen.demonii.com%3A1337","udp%3A%2F%2Ftracker.coppersurfer.tk%3A6969","udp%3A%2F%2Fexodus.desync.com%3A6969"],"infoHash":"dd83b5084453709f21e123d59606ae450bdf1ffa","infoHashBuffer":{"type":"Buffer","data":[221,131,181,8,68,83,112,159,33,225,35,213,150,6,174,69,11,223,31,250]},"announce":[],"urlList":[]}}